<svg xmlns="http://www.w3.org/2000/svg" viewBox="0 0 1780.29 868.49"><defs><style>.cls-1{fill:#f7941d;}</style></defs><g id="Layer_3"><path class="cls-1" d="M1082,816.42c-1.85,0,25.47-84.76,27.8-89.85,27.16-59.27,70.5-107.26,129.91-134.94,19.91-9.27,42.35-12.11,64.1-12.6,55.53-1.26,111.23.46,166.82.46h313.1q40.76,0,81.52,0c2.87,43.27-12.8,86.22-36.68,122.41-33.08,50.14-81.16,88.64-123.06,131.21L1603.61,936.59l-226,229.53-43.93,44.62c-2.28,2.32-13,16.74-16.49,16.75l439.34-1c.79,0-12.43,49.84-13.47,52.69-11.3,31.16-28.11,61.32-50,86.29-36.36,41.38-87.78,69.58-142.42,77.13-29.43,4.07-60.94.58-90.78.58H974.48c-8.88,0,19.41-101.54,23.52-111.13a260.06,260.06,0,0,1,58.47-84.78c27.19-26.17,53.58-51.53,78.82-79.81l203-227.35,109.47-122.61Z" transform="translate(-85.28 -576.05)"/></g><g id="Layer_2"><path class="cls-1" d="M85.28,1440.62l43.18-84.74,102-200.24L350.29,920.46l96.57-189.55C466,693.38,485,654,520.77,629.38c47.84-32.9,95.81-51.31,154.34-52.8,80.32-2,161.34,2.41,241.74,2.77l208.9.92a28.68,28.68,0,0,0,2.92,0S1072.81,814.59,934.61,816l-190.37,1.44s-131.8,8.24-156.51,136.37H898.87c.39,0-3,23.36-3.27,24.65a204,204,0,0,1-19.52,56c-12.76,24-31.66,45.28-55.21,59.17s-46.55,15.78-73,15.77H587.73s-95.13-4.82-138.18,117l463.67,1s-52.74,214.72-223,213.93Z" transform="translate(-85.28 -576.05)"/></g></svg>